<svg width="80" height="80" viewBox="0 0 80 80" fill="none" xmlns="http://www.w3.org/2000/svg">
<rect x="0.133333" y="0.133333" width="79.7333" height="79.7333" rx="5.2" fill="#FDFDFD" stroke="#BEBBC4" stroke-width="0.266667"/>
<path d="M38.1318 31.6029L38.1318 14.1794C38.0103 13.0085 37.0664 10.6667 34.2626 10.6667C31.4588 10.6667 30.0849 13.0085 29.7484 14.1794C29.5148 13.0085 28.3914 10.6667 25.767 10.6667C23.1427 10.6667 22.094 13.0085 21.8978 14.1794C21.552 13.0085 20.2043 10.6667 17.5799 10.6667C14.9555 10.6667 13.8322 13.0085 13.5985 14.1794L13.5985 31.6029C13.7854 32.8019 14.8434 35.2 17.5799 35.2C20.3164 35.2 21.4492 32.8019 21.6735 31.6029C21.7482 32.8019 22.6716 35.2 25.767 35.2C28.8624 35.2 29.7111 32.8019 29.7484 31.6029C30.0849 32.8019 31.4588 35.2 34.2626 35.2C37.0664 35.2 38.0103 32.8019 38.1318 31.6029Z" fill="#653EBF"/>
<path d="M38.1339 52.2676C40.9749 52.9093 40.9749 56.9573 38.1339 57.5991C36.2926 58.015 35.4174 60.1279 36.4253 61.724C37.9804 64.1867 35.118 67.0491 32.6553 65.494C31.0593 64.4861 28.9463 65.3613 28.5304 67.2026C27.8887 70.0436 23.8406 70.0436 23.1989 67.2026C22.783 65.3613 20.67 64.4861 19.074 65.494C16.6113 67.0491 13.7489 64.1867 15.304 61.724C16.3119 60.1279 15.4367 58.015 13.5954 57.5991C10.7544 56.9573 10.7544 52.9093 13.5954 52.2676C15.4367 51.8517 16.3119 49.7387 15.304 48.1426C13.7489 45.68 16.6113 42.8176 19.074 44.3727C20.67 45.3806 22.783 44.5054 23.1989 42.6641C23.8406 39.8231 27.8887 39.8231 28.5304 42.6641C28.9463 44.5054 31.0593 45.3806 32.6553 44.3727C35.118 42.8176 37.9804 45.68 36.4253 48.1426C35.4174 49.7387 36.2926 51.8517 38.1339 52.2676Z" fill="#F97255"/>
<path d="M67.9062 29.8227C69.3735 33.0136 66.0792 36.3078 62.8883 34.8406L57.5795 32.3995C56.5763 31.9382 55.4216 31.9382 54.4184 32.3995L49.1096 34.8406C45.9187 36.3078 42.6244 33.0136 44.0917 29.8227L46.5328 24.5139C46.9941 23.5107 46.9941 22.356 46.5328 21.3528L44.0917 16.0439C42.6244 12.853 45.9187 9.55881 49.1096 11.0261L54.4184 13.4672C55.4216 13.9284 56.5763 13.9284 57.5795 13.4671L62.8883 11.0261C66.0793 9.55881 69.3735 12.853 67.9062 16.044L65.4651 21.3528C65.0038 22.356 65.0038 23.5107 65.4651 24.5139L67.9062 29.8227Z" fill="#4DB892"/>
<rect x="68.2656" y="42.6667" width="24.5333" height="24.5333" rx="3.73333" transform="rotate(90 68.2656 42.6667)" fill="#C74DAC"/>
</svg>
