<svg viewBox="0 0 831 489" fill="none" xmlns="http://www.w3.org/2000/svg">
<g>
<path d="M205.507 62.097C196.403 76.5139 204.308 95.5999 220.94 99.3567C242.444 104.214 242.444 134.854 220.94 139.712C204.308 143.469 196.403 162.555 205.507 176.972C217.278 195.612 195.612 217.278 176.971 205.507C162.554 196.403 143.468 204.309 139.712 220.94C134.854 242.445 104.214 242.445 99.3565 220.94C95.5997 204.309 76.5137 196.403 62.0968 205.507C43.4563 217.278 21.7904 195.612 33.5614 176.972C42.6654 162.555 34.7597 143.469 18.1279 139.712C-3.37623 134.854 -3.37623 104.214 18.1279 99.3567C34.7597 95.5999 42.6654 76.5139 33.5614 62.097C21.7904 43.4565 43.4563 21.7906 62.0968 33.5616C76.5137 42.6656 95.5997 34.7599 99.3565 18.1281C104.214 -3.37604 134.854 -3.37604 139.712 18.1281C143.468 34.7599 162.554 42.6656 176.971 33.5616C195.612 21.7906 217.278 43.4565 205.507 62.097Z" fill="white" stroke="#F97255" stroke-width="4"/>
<path d="M479.273 97.4059C502.857 102.733 502.857 136.336 479.273 141.663C463.989 145.115 456.724 162.655 465.09 175.904C477.999 196.346 454.239 220.107 433.796 207.198C420.547 198.832 403.008 206.097 399.555 221.381C394.228 244.964 360.625 244.964 355.298 221.381C351.846 206.097 334.306 198.832 321.057 207.198C300.614 220.107 276.854 196.346 289.763 175.904C298.129 162.655 290.864 145.115 275.58 141.663C251.997 136.336 251.997 102.733 275.58 97.4059C290.864 93.9534 298.129 76.4138 289.763 63.1648C276.854 42.7221 300.614 18.9615 321.057 31.8705C334.306 40.2369 351.846 32.9718 355.298 17.6874C360.625 -5.89582 394.228 -5.89582 399.555 17.6874C403.008 32.9718 420.547 40.2369 433.796 31.8706C454.239 18.9615 477.999 42.7221 465.09 63.1648C456.724 76.4138 463.989 93.9534 479.273 97.4059Z" fill="#C74DAC"/>
<path d="M737.166 97.4059C760.749 102.733 760.749 136.336 737.166 141.663C721.882 145.115 714.617 162.655 722.983 175.904C735.892 196.346 712.131 220.107 691.689 207.198C678.44 198.832 660.9 206.097 657.448 221.381C652.121 244.964 618.518 244.964 613.191 221.381C609.738 206.097 592.199 198.832 578.95 207.198C558.507 220.107 534.746 196.346 547.656 175.904C556.022 162.655 548.757 145.115 533.472 141.663C509.889 136.336 509.889 102.733 533.472 97.4059C548.757 93.9534 556.022 76.4138 547.656 63.1648C534.746 42.7221 558.507 18.9615 578.95 31.8705C592.199 40.2369 609.738 32.9718 613.191 17.6874C618.518 -5.89582 652.121 -5.89582 657.448 17.6874C660.9 32.9718 678.44 40.2369 691.689 31.8706C712.131 18.9615 735.892 42.7221 722.983 63.1648C714.617 76.4138 721.882 93.9534 737.166 97.4059Z" fill="#4DB892"/>
<path d="M979.185 62.097C970.081 76.5139 977.987 95.5999 994.619 99.3567C1016.12 104.214 1016.12 134.854 994.619 139.712C977.987 143.469 970.081 162.555 979.185 176.972C990.956 195.612 969.291 217.278 950.65 205.507C936.233 196.403 917.147 204.309 913.39 220.94C908.533 242.445 877.893 242.445 873.035 220.94C869.278 204.309 850.192 196.403 835.775 205.507C817.135 217.278 795.469 195.612 807.24 176.972C816.344 162.555 808.438 143.469 791.807 139.712C770.302 134.854 770.302 104.214 791.807 99.3567C808.438 95.5999 816.344 76.5139 807.24 62.097C795.469 43.4565 817.135 21.7906 835.775 33.5616C850.192 42.6656 869.278 34.7599 873.035 18.1281C877.893 -3.37604 908.533 -3.37604 913.39 18.1281C917.147 34.7599 936.233 42.6656 950.65 33.5616C969.291 21.7906 990.956 43.4565 979.185 62.097Z" fill="white" stroke="#653EBF" stroke-width="4"/>
<path d="M339.565 157H341.773V151.896H346.973V150.056H341.773V147H348.013V145.096H339.565V157ZM354.222 157H356.19V156.856C355.998 156.728 355.87 156.36 355.87 155.656V151.16C355.87 150.024 355.454 149.208 354.654 148.728C354.094 148.376 353.342 148.232 352.366 148.232C349.934 148.232 348.782 149.56 348.718 151.016H350.638C350.686 150.168 351.246 149.64 352.382 149.64C353.406 149.64 353.918 150.136 353.918 150.872C353.918 151.64 353.214 151.864 351.806 152.04C349.774 152.28 348.302 152.744 348.302 154.68C348.302 156.344 349.55 157.208 351.214 157.208C352.574 157.208 353.342 156.648 353.902 155.896H353.934C353.966 156.472 354.078 156.808 354.222 157ZM351.806 155.816C351.022 155.816 350.334 155.544 350.334 154.632C350.334 153.688 351.054 153.432 352.302 153.192C352.926 153.064 353.566 152.888 353.966 152.632V153.896C353.966 154.856 353.198 155.816 351.806 155.816ZM361.652 157.256C363.94 157.256 365.396 155.88 365.524 153.896H363.54C363.428 155.016 362.756 155.672 361.636 155.672C360.148 155.672 359.38 154.424 359.38 152.744C359.38 151.016 360.148 149.784 361.636 149.784C362.66 149.784 363.3 150.376 363.492 151.304H365.476C365.172 149.464 363.796 148.232 361.62 148.232C358.996 148.232 357.316 150.2 357.316 152.744C357.316 155.272 359.012 157.256 361.652 157.256ZM370.778 157.256C372.874 157.256 374.25 156.12 374.666 154.584H372.682C372.41 155.288 371.77 155.704 370.794 155.704C369.37 155.704 368.586 154.712 368.442 153.24H374.826C374.842 151.656 374.442 150.312 373.61 149.432C372.89 148.664 371.914 148.232 370.666 148.232C368.138 148.232 366.426 150.2 366.426 152.744C366.426 155.272 368.058 157.256 370.778 157.256ZM370.666 149.704C371.898 149.704 372.65 150.552 372.73 151.96H368.474C368.65 150.616 369.338 149.704 370.666 149.704ZM380.888 157.272C383.16 157.272 384.568 155.528 384.568 152.744C384.568 150.024 383.096 148.232 380.904 148.232C379.688 148.232 378.824 148.824 378.264 149.72H378.216C378.248 149.272 378.28 148.584 378.28 147.912V145.096H376.248V157H378.216V155.768H378.264C378.776 156.776 379.752 157.272 380.888 157.272ZM380.456 155.608C378.984 155.608 378.2 154.408 378.2 152.744C378.2 151.112 378.904 149.816 380.456 149.816C381.816 149.816 382.504 151.048 382.504 152.728C382.504 154.44 381.816 155.608 380.456 155.608ZM389.919 157.256C392.575 157.256 394.255 155.272 394.255 152.744C394.255 150.2 392.575 148.232 389.919 148.232C387.263 148.232 385.551 150.2 385.551 152.744C385.551 155.272 387.263 157.256 389.919 157.256ZM389.903 155.72C388.399 155.72 387.615 154.456 387.615 152.744C387.615 151.016 388.399 149.736 389.903 149.736C391.391 149.736 392.191 151.016 392.191 152.744C392.191 154.456 391.391 155.72 389.903 155.72ZM399.622 157.256C402.278 157.256 403.958 155.272 403.958 152.744C403.958 150.2 402.278 148.232 399.622 148.232C396.966 148.232 395.254 150.2 395.254 152.744C395.254 155.272 396.966 157.256 399.622 157.256ZM399.606 155.72C398.102 155.72 397.318 154.456 397.318 152.744C397.318 151.016 398.102 149.736 399.606 149.736C401.094 149.736 401.894 151.016 401.894 152.744C401.894 154.456 401.094 155.72 399.606 155.72ZM410.973 157H413.341L409.837 151.576L412.973 148.456H410.557L407.341 151.8C407.357 151.304 407.405 150.52 407.405 149.704V145.096H405.389V157H407.405V153.912L408.413 152.904L410.973 157Z" fill="#FDFDFD"/>
<path fill-rule="evenodd" clip-rule="evenodd" d="M402.375 103.153C402.375 89.1404 391.013 77.7783 377 77.7783C362.987 77.7783 351.625 89.1404 351.625 103.153C351.625 115.818 360.903 126.316 373.035 128.221V110.491H366.591V103.153H373.035V97.5629C373.035 91.2044 376.824 87.6893 382.62 87.6893C385.396 87.6893 388.301 88.1855 388.301 88.1855V94.4307H385.1C381.949 94.4307 380.964 96.3859 380.964 98.3955V103.153H388.001L386.877 110.491H380.965V128.224C393.097 126.319 402.375 115.822 402.375 103.153Z" fill="#FDFDFD"/>
<path d="M597.564 157H599.772L601.372 150.776C601.66 149.512 601.98 147.208 601.98 147.208H602.012C602.012 147.208 602.316 149.512 602.635 150.776L604.156 157H606.316L609.612 145.096H607.34L605.932 150.84C605.564 152.296 605.244 154.744 605.244 154.744H605.212C605.212 154.744 604.86 152.216 604.524 150.776L603.084 145.096H600.908L599.452 150.792C599.116 152.216 598.732 154.744 598.732 154.744H598.7C598.7 154.744 598.428 152.312 598.076 150.856L596.668 145.096H594.396L597.564 157ZM612.882 148.296V145.096H610.85V157H612.882V151.992C612.882 150.776 613.682 149.912 614.818 149.912C615.858 149.912 616.45 150.536 616.45 151.544V157H618.482V151.208C618.482 149.368 617.378 148.232 615.538 148.232C614.338 148.232 613.474 148.776 612.898 149.688H612.85C612.866 149.192 612.882 148.536 612.882 148.296ZM625.808 157H627.776V156.856C627.584 156.728 627.456 156.36 627.456 155.656V151.16C627.456 150.024 627.04 149.208 626.24 148.728C625.68 148.376 624.928 148.232 623.952 148.232C621.52 148.232 620.368 149.56 620.304 151.016H622.224C622.272 150.168 622.832 149.64 623.968 149.64C624.992 149.64 625.504 150.136 625.504 150.872C625.504 151.64 624.8 151.864 623.392 152.04C621.36 152.28 619.888 152.744 619.888 154.68C619.888 156.344 621.136 157.208 622.8 157.208C624.16 157.208 624.928 156.648 625.488 155.896H625.52C625.552 156.472 625.664 156.808 625.808 157ZM623.392 155.816C622.608 155.816 621.92 155.544 621.92 154.632C621.92 153.688 622.64 153.432 623.888 153.192C624.512 153.064 625.152 152.888 625.552 152.632V153.896C625.552 154.856 624.784 155.816 623.392 155.816ZM628.666 149.848H629.978V155.08C629.978 156.584 630.922 157.08 632.298 157.08C632.842 157.08 633.306 157.016 633.642 156.952V155.368H633.546C633.386 155.4 633.098 155.432 632.89 155.432C632.314 155.432 631.978 155.256 631.978 154.632V149.848H633.69V148.456H631.978V145.736H629.978V148.456H628.666V149.848ZM638.618 157.272C640.73 157.272 642.266 156.328 642.266 154.536C642.266 152.456 640.666 152.072 639.05 151.768C637.754 151.528 636.874 151.384 636.874 150.632C636.874 150.04 637.37 149.608 638.314 149.608C639.322 149.608 639.866 150.008 640.01 150.744H641.946C641.738 149.256 640.602 148.232 638.33 148.232C636.33 148.232 634.954 149.16 634.954 150.776C634.954 152.712 636.474 153.08 638.074 153.4C639.418 153.656 640.282 153.816 640.282 154.664C640.282 155.352 639.754 155.832 638.634 155.832C637.546 155.832 636.762 155.4 636.602 154.376H634.65C634.778 156.104 636.186 157.272 638.618 157.272ZM642.99 157H645.23L646.19 154.168H650.702L651.646 157H654.014L649.678 145.096H647.31L642.99 157ZM647.678 149.784C648.062 148.648 648.462 146.92 648.462 146.92H648.494C648.494 146.92 648.782 148.376 649.246 149.784L650.158 152.536H646.734L647.678 149.784ZM655.178 159.864H657.21V157.576C657.21 156.776 657.178 156.232 657.146 155.912H657.194C657.722 156.776 658.65 157.272 659.786 157.272C662.09 157.272 663.53 155.496 663.53 152.744C663.53 150.024 662.074 148.232 659.85 148.232C658.65 148.232 657.802 148.744 657.194 149.72H657.146V148.456H655.178V159.864ZM659.402 155.656C657.834 155.656 657.13 154.408 657.13 152.792C657.13 151.176 657.85 149.88 659.386 149.88C660.778 149.88 661.466 151.096 661.466 152.792C661.466 154.472 660.746 155.656 659.402 155.656ZM664.959 159.864H666.991V157.576C666.991 156.776 666.959 156.232 666.927 155.912H666.975C667.503 156.776 668.431 157.272 669.567 157.272C671.871 157.272 673.311 155.496 673.311 152.744C673.311 150.024 671.855 148.232 669.631 148.232C668.431 148.232 667.583 148.744 666.975 149.72H666.927V148.456H664.959V159.864ZM669.183 155.656C667.615 155.656 666.911 154.408 666.911 152.792C666.911 151.176 667.631 149.88 669.167 149.88C670.559 149.88 671.247 151.096 671.247 152.792C671.247 154.472 670.527 155.656 669.183 155.656Z" fill="#FDFDFD"/>
<path fill-rule="evenodd" clip-rule="evenodd" d="M652.981 84.9997C650.635 82.6526 647.848 80.7927 644.78 79.5271C641.713 78.2614 638.425 77.615 635.106 77.6251C621.18 77.6251 609.842 88.9057 609.837 102.774C609.831 107.189 610.995 111.528 613.21 115.348L609.625 128.375L623.021 124.878C626.728 126.887 630.879 127.938 635.096 127.937H635.106C649.032 127.937 660.368 116.655 660.375 102.788C660.383 99.4811 659.734 96.2053 658.465 93.1514C657.195 90.0975 655.331 87.3265 652.981 84.9997V84.9997ZM635.106 123.692H635.097C631.338 123.693 627.647 122.687 624.408 120.778L623.641 120.325L615.692 122.401L617.814 114.687L617.315 113.894C615.212 110.566 614.099 106.71 614.103 102.774C614.103 91.2495 623.529 81.8732 635.114 81.8732C640.672 81.8632 646.006 84.0612 649.943 87.9837C653.88 91.9062 656.098 97.2319 656.109 102.789C656.104 114.315 646.683 123.692 635.106 123.692ZM646.626 108.038C645.995 107.723 642.888 106.203 642.312 105.993C641.737 105.783 641.312 105.678 640.892 106.308C640.471 106.938 639.261 108.347 638.892 108.772C638.524 109.197 638.156 109.243 637.525 108.928C636.894 108.613 634.858 107.951 632.447 105.809C630.57 104.143 629.303 102.086 628.935 101.457C628.567 100.829 628.895 100.488 629.211 100.175C629.496 99.8928 629.842 99.4408 630.158 99.0738C630.474 98.7068 630.58 98.4439 630.789 98.0248C630.999 97.6057 630.895 97.2386 630.737 96.9248C630.58 96.6111 629.317 93.5173 628.791 92.2588C628.278 91.0331 627.758 91.1996 627.371 91.1804C627.002 91.1622 626.578 91.1577 626.16 91.1577C625.84 91.166 625.526 91.2401 625.236 91.3754C624.946 91.5107 624.688 91.7042 624.476 91.9439C623.897 92.5737 622.266 94.0962 622.266 97.1865C622.266 100.277 624.532 103.267 624.844 103.687C625.157 104.106 629.296 110.453 635.63 113.175C636.806 113.679 638.008 114.12 639.23 114.498C640.742 114.976 642.119 114.909 643.206 114.747C644.419 114.567 646.944 113.227 647.469 111.759C647.993 110.291 647.994 109.033 647.837 108.772C647.68 108.51 647.258 108.352 646.626 108.038Z" fill="#FDFDFD"/>
<path d="M660.808 391.731C637.224 386.404 637.224 352.801 660.808 347.474C676.092 344.022 683.357 326.482 674.991 313.233C662.082 292.79 685.842 269.03 706.285 281.939C719.534 290.305 737.074 283.04 740.526 267.756C745.853 244.172 779.456 244.172 784.783 267.756C788.235 283.04 805.775 290.305 819.024 281.939C839.467 269.03 863.227 292.79 850.318 313.233C841.952 326.482 849.217 344.022 864.501 347.474C888.084 352.801 888.084 386.404 864.501 391.731C849.217 395.183 841.952 412.723 850.318 425.972C863.227 446.415 839.467 470.175 819.024 457.266C805.775 448.9 788.235 456.165 784.783 471.449C779.456 495.033 745.853 495.033 740.526 471.449C737.074 456.165 719.534 448.9 706.285 457.266C685.842 470.175 662.082 446.415 674.991 425.972C683.357 412.723 676.092 395.183 660.808 391.731Z" fill="#F97255"/>
<path d="M418.789 427.04C427.893 412.623 419.987 393.537 403.356 389.78C381.851 384.923 381.851 354.282 403.356 349.425C419.987 345.668 427.893 326.582 418.789 312.165C407.018 293.525 428.684 271.859 447.325 283.63C461.741 292.734 480.827 284.828 484.584 268.196C489.442 246.692 520.082 246.692 524.939 268.196C528.696 284.828 547.782 292.734 562.199 283.63C580.84 271.859 602.505 293.525 590.734 312.165C581.631 326.582 589.536 345.668 606.168 349.425C627.672 354.282 627.672 384.923 606.168 389.78C589.536 393.537 581.631 412.623 590.734 427.04C602.505 445.68 580.84 467.346 562.199 455.575C547.782 446.471 528.696 454.377 524.939 471.009C520.082 492.513 489.442 492.513 484.584 471.009C480.827 454.377 461.741 446.471 447.325 455.575C428.684 467.346 407.018 445.68 418.789 427.04Z" fill="white" stroke="#C74DAC" stroke-width="4"/>
<path d="M145.022 391.731C121.439 386.404 121.439 352.801 145.022 347.474C160.307 344.022 167.572 326.482 159.206 313.233C146.296 292.79 170.057 269.03 190.5 281.939C203.749 290.305 221.288 283.04 224.741 267.756C230.068 244.172 263.671 244.172 268.998 267.756C272.45 283.04 289.99 290.305 303.239 281.939C323.681 269.03 347.442 292.79 334.533 313.233C326.167 326.482 333.432 344.022 348.716 347.474C372.299 352.801 372.299 386.404 348.716 391.731C333.432 395.183 326.167 412.723 334.533 425.972C347.442 446.415 323.681 470.175 303.239 457.266C289.99 448.9 272.45 456.165 268.998 471.449C263.671 495.033 230.068 495.033 224.741 471.449C221.288 456.165 203.749 448.9 190.5 457.266C170.057 470.175 146.296 446.415 159.206 425.972C167.572 412.723 160.307 395.183 145.022 391.731Z" fill="#653EBF"/>
<path d="M227.75 407.272C230.39 407.272 232.374 405.944 232.374 403.576C232.374 401 230.342 400.344 228.134 399.864C226.294 399.48 225.142 399.192 225.142 398.088C225.142 397.144 226.022 396.584 227.35 396.584C228.758 396.584 229.638 397.24 229.814 398.408H231.974C231.75 396.216 230.15 394.888 227.382 394.888C224.838 394.888 222.982 396.024 222.982 398.28C222.982 400.664 224.838 401.256 227.062 401.752C228.95 402.184 230.134 402.472 230.134 403.752C230.134 404.936 229.062 405.496 227.766 405.496C225.942 405.496 224.934 404.728 224.774 403.192H222.55C222.646 405.624 224.486 407.272 227.75 407.272ZM239.52 407H241.888L238.384 401.576L241.52 398.456H239.104L235.888 401.8C235.904 401.304 235.952 400.52 235.952 399.704V395.096H233.936V407H235.952V403.912L236.96 402.904L239.52 407ZM244.502 409.912C245.894 409.912 246.63 409.368 247.334 407.48L250.646 398.456H248.598L247.238 402.424C246.886 403.464 246.502 405.08 246.502 405.08H246.47C246.47 405.08 246.118 403.48 245.75 402.424L244.342 398.456H242.182L245.126 405.88C245.302 406.344 245.222 407.144 245.222 407.304C245.046 407.992 244.662 408.248 243.974 408.248C243.766 408.248 243.206 408.216 243.126 408.168H243.014V409.816C243.158 409.864 244.246 409.912 244.502 409.912ZM251.655 409.864H253.687V407.576C253.687 406.776 253.655 406.232 253.623 405.912H253.671C254.199 406.776 255.127 407.272 256.263 407.272C258.567 407.272 260.007 405.496 260.007 402.744C260.007 400.024 258.551 398.232 256.327 398.232C255.127 398.232 254.279 398.744 253.671 399.72H253.623V398.456H251.655V409.864ZM255.879 405.656C254.311 405.656 253.607 404.408 253.607 402.792C253.607 401.176 254.327 399.88 255.863 399.88C257.255 399.88 257.943 401.096 257.943 402.792C257.943 404.472 257.223 405.656 255.879 405.656ZM265.356 407.256C267.452 407.256 268.828 406.12 269.244 404.584H267.26C266.988 405.288 266.348 405.704 265.372 405.704C263.948 405.704 263.164 404.712 263.02 403.24H269.404C269.42 401.656 269.02 400.312 268.188 399.432C267.468 398.664 266.492 398.232 265.244 398.232C262.716 398.232 261.004 400.2 261.004 402.744C261.004 405.272 262.636 407.256 265.356 407.256ZM265.244 399.704C266.476 399.704 267.228 400.552 267.308 401.96H263.052C263.228 400.616 263.916 399.704 265.244 399.704Z" fill="#FDFDFD"/>
<path d="M270.919 358.392C271.292 356.713 271.478 354.998 271.474 353.278C271.474 340.101 260.634 329.409 247.255 329.409C245.869 329.408 244.486 329.522 243.118 329.749C240.882 328.353 238.298 327.617 235.662 327.625C227.916 327.625 221.623 333.824 221.623 341.462C221.615 343.93 222.281 346.352 223.549 348.469C223.225 350.047 223.061 351.655 223.06 353.266C223.06 366.457 233.899 377.135 247.264 377.135C248.749 377.138 250.232 377.006 251.693 376.738C253.74 377.816 256.02 378.378 258.334 378.375C266.094 378.375 272.373 372.176 272.373 364.538C272.386 362.402 271.887 360.295 270.919 358.392V358.392ZM259.686 364.668C258.562 366.227 256.909 367.469 254.768 368.342C252.627 369.214 250.098 369.652 247.19 369.652C243.713 369.652 240.805 369.044 238.518 367.855C236.932 367.02 235.565 365.825 234.526 364.366C233.494 362.912 232.978 361.459 232.978 360.061C232.978 359.189 233.318 358.435 233.983 357.801C234.645 357.193 235.503 356.875 236.508 356.875C237.341 356.875 238.055 357.113 238.637 357.603C239.192 358.065 239.668 358.752 240.051 359.651C240.422 360.511 240.89 361.326 241.447 362.08C241.925 362.7 242.599 363.216 243.471 363.626C244.356 364.036 245.532 364.247 246.982 364.247C248.978 364.247 250.617 363.824 251.847 362.991C253.063 362.185 253.645 361.207 253.645 360.018C253.645 359.08 253.341 358.339 252.706 357.758C252.046 357.15 251.186 356.674 250.116 356.357C249.018 356.017 247.525 355.657 245.674 355.274C243.162 354.745 241.029 354.11 239.33 353.397C237.599 352.669 236.198 351.652 235.166 350.397C234.121 349.115 233.606 347.503 233.606 345.612C233.588 343.864 234.166 342.163 235.245 340.788C236.329 339.401 237.903 338.317 239.952 337.577C241.962 336.837 244.354 336.467 247.05 336.467C249.218 336.467 251.109 336.718 252.695 337.194C254.281 337.67 255.63 338.344 256.701 339.163C257.771 339.982 258.552 340.854 259.054 341.768C259.555 342.682 259.808 343.606 259.808 344.487C259.808 345.332 259.477 346.113 258.816 346.787C258.495 347.12 258.108 347.384 257.681 347.562C257.253 347.739 256.793 347.826 256.33 347.817C255.432 347.817 254.731 347.606 254.242 347.183C253.789 346.787 253.317 346.178 252.802 345.292C252.193 344.17 251.466 343.27 250.633 342.636C249.813 342.029 248.465 341.712 246.588 341.712C244.856 341.712 243.442 342.051 242.397 342.731C241.392 343.379 240.902 344.132 240.902 345.017C240.89 345.524 241.064 346.018 241.392 346.405C241.791 346.864 242.282 347.233 242.833 347.489C243.454 347.801 244.104 348.049 244.776 348.229C245.455 348.414 246.573 348.692 248.121 349.035C250.09 349.445 251.887 349.921 253.474 350.409C255.088 350.925 256.475 351.542 257.611 352.273C258.74 352.985 259.679 353.96 260.348 355.115C260.996 356.248 261.327 357.679 261.327 359.318C261.399 361.235 260.821 363.121 259.686 364.668V364.668Z" fill="#FDFDFD"/>
<path d="M733.814 407H736.038V402.328L740.23 395.096H737.878L736.182 398.104C735.654 399.08 734.982 400.648 734.982 400.648H734.95C734.95 400.648 734.294 399.064 733.766 398.104L732.086 395.096H729.638L733.814 402.296V407ZM743.512 407.256C746.168 407.256 747.848 405.272 747.848 402.744C747.848 400.2 746.168 398.232 743.512 398.232C740.856 398.232 739.144 400.2 739.144 402.744C739.144 405.272 740.856 407.256 743.512 407.256ZM743.496 405.72C741.992 405.72 741.208 404.456 741.208 402.744C741.208 401.016 741.992 399.736 743.496 399.736C744.984 399.736 745.784 401.016 745.784 402.744C745.784 404.456 744.984 405.72 743.496 405.72ZM756.752 407V398.456H754.736V403.464C754.736 404.648 754 405.528 752.848 405.528C751.824 405.528 751.248 404.936 751.248 403.928V398.456H749.216V404.216C749.216 406.056 750.304 407.224 752.176 407.224C753.376 407.224 754.128 406.712 754.752 405.784H754.784V407H756.752ZM758.144 397H761.856V407H764.08V397H767.808V395.096H758.144V397ZM775.533 407V398.456H773.517V403.464C773.517 404.648 772.781 405.528 771.629 405.528C770.605 405.528 770.029 404.936 770.029 403.928V398.456H767.997V404.216C767.997 406.056 769.085 407.224 770.957 407.224C772.157 407.224 772.909 406.712 773.533 405.784H773.565V407H775.533ZM782.029 407.272C784.301 407.272 785.709 405.528 785.709 402.744C785.709 400.024 784.237 398.232 782.045 398.232C780.829 398.232 779.965 398.824 779.405 399.72H779.357C779.389 399.272 779.421 398.584 779.421 397.912V395.096H777.389V407H779.357V405.768H779.405C779.917 406.776 780.893 407.272 782.029 407.272ZM781.597 405.608C780.125 405.608 779.341 404.408 779.341 402.744C779.341 401.112 780.045 399.816 781.597 399.816C782.957 399.816 783.645 401.048 783.645 402.728C783.645 404.44 782.957 405.608 781.597 405.608ZM791.043 407.256C793.139 407.256 794.515 406.12 794.931 404.584H792.947C792.675 405.288 792.035 405.704 791.059 405.704C789.635 405.704 788.851 404.712 788.707 403.24H795.091C795.107 401.656 794.707 400.312 793.875 399.432C793.155 398.664 792.179 398.232 790.931 398.232C788.403 398.232 786.691 400.2 786.691 402.744C786.691 405.272 788.323 407.256 791.043 407.256ZM790.931 399.704C792.163 399.704 792.915 400.552 792.995 401.96H788.739C788.915 400.616 789.603 399.704 790.931 399.704Z" fill="#FDFDFD"/>
<path d="M791.622 340.855C791.622 335.757 787.872 331.657 783.239 331.657C776.963 331.363 770.563 331.25 764.022 331.25H761.983C755.458 331.25 749.046 331.363 742.771 331.658C738.149 331.658 734.399 335.781 734.399 340.879C734.116 344.911 733.996 348.943 734.003 352.976C733.991 357.009 734.12 361.046 734.388 365.086C734.388 370.184 738.137 374.318 742.759 374.318C749.352 374.624 756.115 374.76 762.991 374.749C769.879 374.772 776.623 374.628 783.223 374.318C787.857 374.318 791.606 370.184 791.606 365.086C791.878 361.042 792.003 357.009 791.991 352.965C792.017 348.932 791.894 344.895 791.622 340.855ZM757.452 364.089V341.829L773.878 352.954L757.452 364.089Z" fill="#FDFDFD"/>
</g>
<defs>
<clipPath id="clip0_267_12264">
<rect width="831" height="489" fill="white"/>
</clipPath>
</defs>
</svg>
