<svg width="31" height="37" viewBox="0 0 31 37" fill="none" xmlns="http://www.w3.org/2000/svg">
<path d="M19.6702 1.15234C19.6702 2.27945 19.8145 3.50583 19.4248 4.58849C18.9313 5.95926 17.9778 7.21301 16.8688 8.14312C15.4904 9.29918 13.8743 10.5975 11.977 10.5975C11.5925 10.5975 12.1844 10.6485 12.2901 10.6737C12.8602 10.8094 13.5256 10.856 14.1097 10.8937C15.9214 11.0106 17.3996 11.8307 18.68 13.1111C20.9587 15.3898 21.3939 18.3392 22.4885 21.1852C22.5265 21.284 22.5647 21.8187 22.5647 21.5322C22.5647 20.9456 22.5574 20.3584 22.5647 19.7719C22.5866 18.0232 23.2255 16.1773 23.7496 14.5245C24.5223 12.0875 24.7613 7.58945 28.2013 7.39834C28.5264 7.38028 29.4917 7.246 29.1662 7.246C28.805 7.246 28.4439 7.246 28.0828 7.246C27.0351 7.246 25.3762 7.56489 24.4266 7.0598C22.8254 6.20806 21.5292 5.38503 20.5843 3.776C20.0566 2.87764 19.8386 1.96228 19.5179 1" stroke="#FAE150" stroke-width="2" stroke-linecap="round"/>
<path d="M8.57938 19.0655C8.57938 22.0974 6.25058 24.3663 3.73541 25.7932C2.9993 26.2108 2.22021 26.4913 1.39155 26.6526C0.564589 26.8136 1.24784 26.6077 1.61726 26.5658C3.21295 26.3847 4.99071 26.255 6.53068 26.8262C9.99571 28.1117 9.67318 32.6048 9.67318 35.6548C9.67318 36.7751 9.77949 33.4136 9.93361 32.3039C10.2617 29.9419 11.4475 27.5115 13.3365 25.9842C13.9129 25.5182 14.6708 25.1853 15.42 25.1595C15.4793 25.1575 15.9919 25.1595 15.7672 25.1595C14.5635 25.1595 13.5347 25.0631 12.4077 24.6039C9.64132 23.4769 8.71811 20.8354 8.26687 18.1279" stroke="#FAE150" stroke-width="2" stroke-linecap="round"/>
</svg>
